<svg version="1.1" xmlns="http://www.w3.org/2000/svg" viewBox="0 0 544.6309204101561 692.9791897365025" width="544.6309204101561" height="692.9791897365025" filter="invert(93%) hue-rotate(180deg)">
  <!-- svg-source:excalidraw -->
  
  <defs>
    <style class="style-fonts">
      @font-face {
        font-family: "Virgil";
        src: url("https://excalidraw.com/Virgil.woff2");
      }
      @font-face {
        font-family: "Cascadia";
        src: url("https://excalidraw.com/Cascadia.woff2");
      }
    </style>
  </defs>
  <rect x="0" y="0" width="544.6309204101561" height="692.9791897365025" fill="#ffffff"></rect><g stroke-linecap="round" transform="translate(325.934600830078 429.58108520507824) rotate(0 100 43.5)"><path d="M5.13 5.79 C5.13 5.79, 5.13 5.79, 5.13 5.79 M5.13 5.79 C5.13 5.79, 5.13 5.79, 5.13 5.79 M0.94 16.71 C3.8 11.8, 9.24 6.31, 13.4 2.37 M0.94 16.71 C3.32 12.93, 6.75 9.17, 13.4 2.37 M0.67 23.11 C9.56 16.38, 16.57 4.43, 19.7 1.22 M0.67 23.11 C5.56 18.83, 10.5 12.59, 19.7 1.22 M0.41 29.51 C8.65 22.79, 15.48 13.66, 24.03 2.34 M0.41 29.51 C8.12 19.45, 15.59 11.2, 24.03 2.34 M0.81 35.15 C5.6 26.51, 12.52 19.91, 29.67 1.94 M0.81 35.15 C9.31 25.88, 17.34 15.09, 29.67 1.94 M0.55 41.55 C8.2 31.18, 18.63 21.71, 34.66 2.3 M0.55 41.55 C11.74 28.75, 21.09 17.55, 34.66 2.3 M0.94 47.19 C10.05 36.01, 18.52 25.08, 40.3 1.91 M0.94 47.19 C15.68 31.49, 31.28 14.77, 40.3 1.91 M0.68 53.59 C18.1 34.73, 33.1 19.36, 45.29 2.27 M0.68 53.59 C15.16 36.23, 31.02 18.74, 45.29 2.27 M0.42 59.99 C10.84 43.99, 25.38 31.42, 50.93 1.88 M0.42 59.99 C11.91 46.04, 23.71 34.24, 50.93 1.88 M0.81 65.63 C10.69 52.19, 23.33 37.63, 55.92 2.24 M0.81 65.63 C22.47 40.9, 43.57 16.8, 55.92 2.24 M1.21 71.27 C22.01 47.82, 46.77 22.24, 61.56 1.84 M1.21 71.27 C15.65 53.19, 32.59 35.09, 61.56 1.84 M2.91 75.41 C18.2 56.13, 33.52 37.04, 66.55 2.2 M2.91 75.41 C17.57 59.79, 33.62 42.41, 66.55 2.2 M4.62 79.54 C19.51 60.79, 36.93 42.26, 72.19 1.81 M4.62 79.54 C23.42 57.42, 40.39 38.01, 72.19 1.81 M6.98 82.92 C25.19 59.61, 47.23 39.6, 77.18 2.17 M6.98 82.92 C22.21 65.8, 38.65 46.58, 77.18 2.17 M10.66 84.79 C27.43 62.91, 46.16 44.08, 82.82 1.77 M10.66 84.79 C29.06 63.1, 48.98 40.04, 82.82 1.77 M13.68 87.41 C34.97 59.69, 60.9 35.34, 87.81 2.13 M13.68 87.41 C42.41 53.73, 73.66 19.04, 87.81 2.13 M18.66 87.77 C44.18 58.08, 74.02 25.36, 92.8 2.49 M18.66 87.77 C39.31 64.21, 59.29 41.51, 92.8 2.49 M23.65 88.13 C43.2 67.66, 61.92 43.71, 98.44 2.1 M23.65 88.13 C46.03 61.31, 69.49 36.31, 98.44 2.1 M28.64 88.49 C48.65 65.45, 65.5 45.14, 103.43 2.46 M28.64 88.49 C52.63 61.2, 76.24 34.83, 103.43 2.46 M34.28 88.1 C51.89 67.58, 68.94 49.08, 109.07 2.06 M34.28 88.1 C50.59 71.66, 64.67 54.33, 109.07 2.06 M39.27 88.46 C64.57 60.06, 91.41 29.2, 114.06 2.42 M39.27 88.46 C56 68.96, 73.77 50.42, 114.06 2.42 M44.91 88.07 C58.18 69.73, 73.43 54.29, 119.7 2.03 M44.91 88.07 C64.5 65.88, 82.81 43.8, 119.7 2.03 M49.9 88.43 C80.32 57.06, 108.15 21.83, 124.69 2.39 M49.9 88.43 C68.63 67.14, 89.71 45.31, 124.69 2.39 M54.88 88.79 C83.39 55.89, 111.04 22.9, 130.33 1.99 M54.88 88.79 C80.61 58.12, 107.23 26.51, 130.33 1.99 M60.53 88.39 C80.17 65.06, 104.28 38.89, 135.32 2.35 M60.53 88.39 C80.47 64.26, 100.21 42.14, 135.32 2.35 M65.51 88.75 C94.9 53.79, 122.95 19.41, 140.96 1.96 M65.51 88.75 C84.1 66.48, 105.05 43.86, 140.96 1.96 M71.16 88.36 C93.1 63.84, 112.6 40.18, 145.95 2.32 M71.16 88.36 C95.77 61.07, 120.4 32.78, 145.95 2.32 M76.15 88.72 C103.02 58.02, 128.86 26.47, 151.59 1.93 M76.15 88.72 C99.4 62.98, 120.61 37.3, 151.59 1.93 M81.79 88.32 C107.94 56.02, 136.33 24.6, 156.58 2.29 M81.79 88.32 C103.71 63.49, 127.06 37.73, 156.58 2.29 M86.78 88.68 C116.3 58.28, 143.69 24.5, 162.22 1.89 M86.78 88.68 C105.99 66.2, 123.12 44.67, 162.22 1.89 M92.42 88.29 C108.84 68.55, 128.58 43.72, 167.21 2.25 M92.42 88.29 C112.06 63.22, 134.24 40.19, 167.21 2.25 M97.41 88.65 C114.29 67.74, 132.19 50.54, 172.85 1.86 M97.41 88.65 C115.24 67.91, 134 49.11, 172.85 1.86 M103.05 88.25 C119.86 71.04, 137.13 50.95, 179.15 0.71 M103.05 88.25 C128.65 55.89, 156.21 26.97, 179.15 0.71 M108.04 88.61 C132.92 59.46, 158.09 31.71, 184.14 1.07 M108.04 88.61 C129.41 63.5, 151.96 38.05, 184.14 1.07 M113.68 88.22 C130.12 65.69, 148.3 45.85, 188.47 2.18 M113.68 88.22 C131.47 69.64, 147.33 48.13, 188.47 2.18 M118.67 88.58 C143.44 61.91, 167.6 32.18, 192.14 4.05 M118.67 88.58 C142.57 59.93, 168.21 30.95, 192.14 4.05 M124.31 88.18 C145.36 60.62, 167.21 36.27, 195.82 5.92 M124.31 88.18 C139.04 69.56, 155.12 52.91, 195.82 5.92 M129.3 88.54 C150.03 63.66, 172.75 38.04, 197.53 10.05 M129.3 88.54 C144.15 71.46, 159.71 54.96, 197.53 10.05 M134.94 88.15 C152.38 65.91, 169.68 47.13, 199.23 14.19 M134.94 88.15 C150.05 69.13, 167.45 51.32, 199.23 14.19 M139.93 88.51 C154.45 74.49, 166.38 59.08, 200.94 18.32 M139.93 88.51 C158.1 68.22, 174.75 48.87, 200.94 18.32 M145.57 88.12 C166.95 62.55, 186.55 40.5, 201.33 23.97 M145.57 88.12 C160.39 72.13, 173.02 55.75, 201.33 23.97 M150.56 88.48 C169.94 66.38, 191.57 44.75, 201.07 30.36 M150.56 88.48 C161.58 74.94, 172.53 63.49, 201.07 30.36 M156.2 88.08 C174.17 69.1, 189.78 48.8, 201.47 36.01 M156.2 88.08 C171.27 68.95, 188.01 51.31, 201.47 36.01 M161.19 88.44 C170.78 76.19, 181.68 64.06, 201.21 42.4 M161.19 88.44 C175.94 71.29, 190.09 54.5, 201.21 42.4 M166.17 88.8 C174.84 79.79, 180.37 72.48, 201.6 48.05 M166.17 88.8 C178.12 75.08, 189.3 62.47, 201.6 48.05 M171.82 88.41 C179.66 76.25, 190.83 64.98, 201.34 54.44 M171.82 88.41 C177.6 80.96, 183.92 73.62, 201.34 54.44 M178.11 87.26 C185.22 79.68, 192.54 70.71, 201.73 60.09 M178.11 87.26 C186.85 79.18, 194.16 70.21, 201.73 60.09 M185.07 85.35 C186.89 82.93, 192.75 76.67, 201.47 66.49 M185.07 85.35 C190.4 79.05, 196.96 72.66, 201.47 66.49" stroke="#b2f2bb" stroke-width="0.5" fill="none"></path><path d="M21.75 0 M21.75 0 C51.81 -1.15, 84.12 2.4, 178.25 0 M21.75 0 C69.21 -0.19, 116.34 -0.57, 178.25 0 M178.25 0 C192.45 0.93, 201.08 8.09, 200 21.75 M178.25 0 C192.95 -0.77, 201.16 6.92, 200 21.75 M200 21.75 C200.28 32.56, 199.18 43.71, 200 65.25 M200 21.75 C199.67 36.65, 200.04 49.54, 200 65.25 M200 65.25 C201.17 81.03, 192.58 86.13, 178.25 87 M200 65.25 C200.89 81.87, 193.14 88, 178.25 87 M178.25 87 C126.02 85.73, 76.09 85.78, 21.75 87 M178.25 87 C141.75 86.7, 106.53 85.77, 21.75 87 M21.75 87 C7.76 87.66, -1.63 79.8, 0 65.25 M21.75 87 C6.53 88.3, -0.55 77.57, 0 65.25 M0 65.25 C0.55 55.88, 0.82 44.13, 0 21.75 M0 65.25 C-0.64 55.95, 0.73 46.91, 0 21.75 M0 21.75 C-1.3 6.91, 5.55 0.53, 21.75 0 M0 21.75 C-0.83 6.5, 8.07 -0.37, 21.75 0" stroke="#2f9e44" stroke-width="1" fill="none"></path></g><g transform="translate(370.31464385986317 460.58108520507824) rotate(0 55.619956970214844 12.5)"><text x="55.619956970214844" y="0" font-family="Virgil, Segoe UI Emoji" font-size="20px" fill="#2f9e44" text-anchor="middle" style="white-space: pre;" direction="ltr" dominant-baseline="text-before-edge">GitHub API</text></g><g stroke-linecap="round" transform="translate(15.923025948660552 595.9791897365025) rotate(0 109 43.5)"><path d="M5.13 5.79 C5.13 5.79, 5.13 5.79, 5.13 5.79 M5.13 5.79 C5.13 5.79, 5.13 5.79, 5.13 5.79 M0.94 16.71 C6.14 11.08, 7.15 9, 13.4 2.37 M0.94 16.71 C4.47 12.48, 10.43 7.78, 13.4 2.37 M0.67 23.11 C5.16 15.67, 11.87 9.91, 19.7 1.22 M0.67 23.11 C5.08 18.49, 8.62 13.52, 19.7 1.22 M0.41 29.51 C8.46 19.67, 18.03 9.52, 24.03 2.34 M0.41 29.51 C6.92 22.51, 12.93 16.14, 24.03 2.34 M0.81 35.15 C6.66 26.67, 12.65 20.59, 29.67 1.94 M0.81 35.15 C11.05 22.85, 22.14 11.39, 29.67 1.94 M0.55 41.55 C10.94 29.2, 19.1 20.61, 34.66 2.3 M0.55 41.55 C11.72 30.12, 22.11 17.47, 34.66 2.3 M0.94 47.19 C9.85 37.06, 17.65 25.87, 40.3 1.91 M0.94 47.19 C15.12 29.11, 30.69 13.12, 40.3 1.91 M0.68 53.59 C11.84 38.39, 23.2 27.97, 45.29 2.27 M0.68 53.59 C17.74 35.55, 31.97 17.97, 45.29 2.27 M0.42 59.99 C12.25 48.56, 22.98 31.82, 50.93 1.88 M0.42 59.99 C12.63 48.1, 22.75 34.12, 50.93 1.88 M0.81 65.63 C14.5 50.78, 25.5 38.19, 55.92 2.24 M0.81 65.63 C22.59 42.5, 44.37 18.01, 55.92 2.24 M1.21 71.27 C14.75 56.72, 28.43 41.72, 61.56 1.84 M1.21 71.27 C16.35 54.31, 29.33 39.14, 61.56 1.84 M2.91 75.41 C21.2 53.67, 41.44 30.66, 66.55 2.2 M2.91 75.41 C20.08 53, 38.94 33.84, 66.55 2.2 M4.62 79.54 C29.02 51.46, 52.29 24, 72.19 1.81 M4.62 79.54 C31.8 48.67, 58.07 19.39, 72.19 1.81 M6.98 82.92 C28.79 56.98, 50.37 33.14, 77.18 2.17 M6.98 82.92 C24.52 64.19, 42.36 43.35, 77.18 2.17 M10.66 84.79 C32.63 59.25, 50.8 36.14, 82.82 1.77 M10.66 84.79 C29.58 64.27, 47.67 42.93, 82.82 1.77 M13.68 87.41 C33.31 64.67, 53.22 43.13, 87.81 2.13 M13.68 87.41 C42.91 55.93, 69.11 22.28, 87.81 2.13 M18.66 87.77 C38.12 64.81, 56.64 43.02, 92.8 2.49 M18.66 87.77 C33.75 70.22, 51.78 50.19, 92.8 2.49 M23.65 88.13 C40.05 68.81, 58.71 47.08, 98.44 2.1 M23.65 88.13 C44.23 62.74, 67.31 39.05, 98.44 2.1 M28.64 88.49 C48.11 69.65, 62.21 47.16, 103.43 2.46 M28.64 88.49 C49.32 65.58, 71.15 41.11, 103.43 2.46 M34.28 88.1 C57.49 60.05, 85.09 31, 109.07 2.06 M34.28 88.1 C57.85 62.33, 81.36 35.35, 109.07 2.06 M39.27 88.46 C61.83 62.4, 88.5 32.73, 114.06 2.42 M39.27 88.46 C56.23 68.27, 73.18 49.07, 114.06 2.42 M44.91 88.07 C66.52 62.82, 89.41 36.42, 119.7 2.03 M44.91 88.07 C64.68 65.5, 85.38 41.38, 119.7 2.03 M49.9 88.43 C76.65 57.35, 101.12 29.97, 124.69 2.39 M49.9 88.43 C72.18 62.62, 94.58 37.74, 124.69 2.39 M54.88 88.79 C80.84 58.83, 104.53 30.25, 130.33 1.99 M54.88 88.79 C78.37 61.51, 100.33 34.2, 130.33 1.99 M60.53 88.39 C85.87 59.66, 110.03 34.04, 135.32 2.35 M60.53 88.39 C83.4 63.26, 104.21 37.83, 135.32 2.35 M65.51 88.75 C84.99 69.02, 104.54 44.3, 140.96 1.96 M65.51 88.75 C87.57 63.1, 108.78 39.1, 140.96 1.96 M71.16 88.36 C96.6 58.85, 123.46 26.42, 145.95 2.32 M71.16 88.36 C90.69 65.56, 110.18 43.82, 145.95 2.32 M76.15 88.72 C103.64 58.44, 127.51 29.63, 151.59 1.93 M76.15 88.72 C104.07 58.37, 131.32 26.29, 151.59 1.93 M81.79 88.32 C103.21 60.8, 127.53 33.23, 156.58 2.29 M81.79 88.32 C98.45 69.36, 115.88 48.85, 156.58 2.29 M86.78 88.68 C111.08 60.43, 136.71 32.35, 162.22 1.89 M86.78 88.68 C101.95 71.48, 118.6 53.81, 162.22 1.89 M92.42 88.29 C109.85 67.28, 126.64 50.4, 167.21 2.25 M92.42 88.29 C110.98 66.99, 130.33 44.7, 167.21 2.25 M97.41 88.65 C121.46 60.34, 146.51 30.35, 172.85 1.86 M97.41 88.65 C127.19 55.17, 156.82 20.4, 172.85 1.86 M103.05 88.25 C118.97 70.5, 136.03 50.17, 177.84 2.22 M103.05 88.25 C132.23 54.22, 161.86 20.84, 177.84 2.22 M108.04 88.61 C135.02 56.12, 163.36 21.94, 183.48 1.82 M108.04 88.61 C124.68 70.24, 140.66 51.82, 183.48 1.82 M113.68 88.22 C142.75 53.24, 174.19 18.5, 188.47 2.18 M113.68 88.22 C137.82 60.21, 160.28 32.71, 188.47 2.18 M118.67 88.58 C139.8 63.29, 159.48 38.85, 194.11 1.79 M118.67 88.58 C139.66 64.36, 161 40.09, 194.11 1.79 M124.31 88.18 C152.49 54.84, 182.43 23.41, 199.1 2.15 M124.31 88.18 C147.86 61.97, 170.49 36.16, 199.1 2.15 M129.3 88.54 C153.06 60.88, 175.14 36.53, 203.43 3.26 M129.3 88.54 C150.59 64.46, 171.35 39.21, 203.43 3.26 M134.94 88.15 C158.75 60.16, 183.25 30.43, 208.42 3.62 M134.94 88.15 C152.43 66.28, 170.76 45.8, 208.42 3.62 M139.93 88.51 C154.66 71.12, 169.96 55.07, 212.09 5.49 M139.93 88.51 C159.29 67.88, 177.55 46.97, 212.09 5.49 M145.57 88.12 C174.09 55.98, 198.49 26.46, 215.11 8.12 M145.57 88.12 C161.66 69.53, 178.15 50.83, 215.11 8.12 M150.56 88.48 C170.85 66.13, 193.91 41.65, 217.47 11.5 M150.56 88.48 C172.67 64.81, 192.26 39.35, 217.47 11.5 M156.2 88.08 C179.3 58.35, 205.28 31.39, 217.87 17.14 M156.2 88.08 C181.35 60.61, 205.08 33.37, 217.87 17.14 M161.19 88.44 C171.99 73.7, 185.8 58.28, 218.26 22.78 M161.19 88.44 C177.44 67.72, 194.7 48.83, 218.26 22.78 M166.17 88.8 C182.78 68.99, 199.38 49.81, 218 29.18 M166.17 88.8 C177.63 76.13, 188.46 64.43, 218 29.18 M171.82 88.41 C190.44 69.69, 207.74 45.57, 218.4 34.82 M171.82 88.41 C187.86 68.74, 204.59 51.33, 218.4 34.82 M176.8 88.77 C189.24 74.33, 201.27 61.67, 218.13 41.22 M176.8 88.77 C186.66 78.91, 195.43 67.74, 218.13 41.22 M182.45 88.37 C192.82 77.2, 200.65 66.74, 218.53 46.86 M182.45 88.37 C193.94 74.83, 207.07 60.52, 218.53 46.86 M187.43 88.73 C194.35 80.98, 202.52 73.05, 218.27 53.26 M187.43 88.73 C199.22 75.92, 210.71 62.3, 218.27 53.26 M193.08 88.34 C203.16 79.13, 212.93 67.57, 218.01 59.66 M193.08 88.34 C198.05 81.69, 203.22 75.95, 218.01 59.66 M198.06 88.7 C203.89 81.46, 210.79 72.16, 218.4 65.3 M198.06 88.7 C202.04 83.2, 206.5 79.47, 218.4 65.3 M205.02 86.79 C210.32 81.89, 211.87 76.85, 217.48 72.45 M205.02 86.79 C208.5 83.04, 211.09 79.27, 217.48 72.45" stroke="#ffec99" stroke-width="0.5" fill="none"></path><path d="M21.75 0 M21.75 0 C78.48 2.11, 135 2.28, 196.25 0 M21.75 0 C67.85 -1.48, 114.97 -1.14, 196.25 0 M196.25 0 C209.72 -1.62, 216.86 6.12, 218 21.75 M196.25 0 C212.77 0.05, 219.97 5.59, 218 21.75 M218 21.75 C217.44 32.45, 216.43 46.15, 218 65.25 M218 21.75 C217.74 33.92, 218.12 46.52, 218 65.25 M218 65.25 C219.68 78.81, 211.38 85.65, 196.25 87 M218 65.25 C218.21 81.29, 208.96 87.16, 196.25 87 M196.25 87 C157.15 89.38, 120.24 87.16, 21.75 87 M196.25 87 C131.02 85.79, 67.69 86.03, 21.75 87 M21.75 87 C7.43 86.31, 1.48 80.4, 0 65.25 M21.75 87 C5.5 87.89, 0.83 79.43, 0 65.25 M0 65.25 C1.83 51.18, -0.51 37.44, 0 21.75 M0 65.25 C-0.43 51.93, 1.11 38.9, 0 21.75 M0 21.75 C-1.06 7.65, 7.45 0.73, 21.75 0 M0 21.75 C-1.27 9.2, 6.55 1.13, 21.75 0" stroke="#f08c00" stroke-width="1" fill="none"></path></g><g transform="translate(40.793104989187896 626.9791897365025) rotate(0 84.12992095947266 12.5)"><text x="84.12992095947266" y="0" font-family="Virgil, Segoe UI Emoji" font-size="20px" fill="#f08c00" text-anchor="middle" style="white-space: pre;" direction="ltr" dominant-baseline="text-before-edge">Vercel deployment</text></g><g stroke-linecap="round" transform="translate(10 10) rotate(0 261.90488106863836 163.30524880545477)"><path d="M7.86 8.16 C7.86 8.16, 7.86 8.16, 7.86 8.16 M7.86 8.16 C7.86 8.16, 7.86 8.16, 7.86 8.16 M3.66 19.09 C7.84 14.44, 14.35 7.73, 18.1 2.48 M3.66 19.09 C7.58 13, 12.67 8.15, 18.1 2.48 M2.75 26.24 C6.45 20.15, 14.47 12.82, 24.4 1.33 M2.75 26.24 C10.9 16.82, 17.88 8.89, 24.4 1.33 M1.83 33.39 C6.65 25.33, 14.78 18.62, 30.7 0.18 M1.83 33.39 C7.47 26.39, 13.06 20.23, 30.7 0.18 M1.57 39.79 C15.67 24.75, 24.87 11.08, 34.37 2.05 M1.57 39.79 C11.34 27.83, 21.94 16.39, 34.37 2.05 M1.96 45.43 C9.13 33.85, 18.98 25.27, 39.36 2.41 M1.96 45.43 C9.26 35.59, 17.34 28.13, 39.36 2.41 M1.7 51.83 C11.97 38.88, 23.69 25.77, 45 2.02 M1.7 51.83 C17.31 33.84, 33.25 16.5, 45 2.02 M1.44 58.23 C15.44 44.29, 28.26 28.27, 49.99 2.38 M1.44 58.23 C10.94 47.09, 22.28 34.79, 49.99 2.38 M1.83 63.87 C19.01 44.75, 33.96 27.51, 55.63 1.98 M1.83 63.87 C13.14 50.47, 25.18 36.87, 55.63 1.98 M1.57 70.27 C18.27 52.4, 35.89 32.66, 60.62 2.34 M1.57 70.27 C16.52 55.23, 29.9 39.8, 60.62 2.34 M1.97 75.91 C25.53 47.36, 50.59 20.6, 66.26 1.95 M1.97 75.91 C15.86 58.61, 30 43.89, 66.26 1.95 M1.71 82.31 C25.9 52.21, 51.72 23.66, 71.25 2.31 M1.71 82.31 C16.97 64.07, 31.44 48.55, 71.25 2.31 M1.44 88.71 C23.23 62.56, 45 37.07, 76.89 1.91 M1.44 88.71 C32.1 56.22, 61.04 23.25, 76.89 1.91 M1.84 94.35 C21.25 69.67, 45.93 43.81, 81.88 2.27 M1.84 94.35 C22.13 70.18, 43.27 47.34, 81.88 2.27 M1.58 100.75 C38.07 62.79, 70.02 20.22, 87.52 1.88 M1.58 100.75 C31.26 65.35, 63.97 29.89, 87.52 1.88 M1.97 106.39 C30.5 74.18, 58.99 38.51, 92.51 2.24 M1.97 106.39 C21.02 85.2, 40.44 62.96, 92.51 2.24 M1.71 112.79 C28.58 85.81, 52.85 57.95, 98.15 1.85 M1.71 112.79 C21.76 89.14, 44.33 64.82, 98.15 1.85 M1.45 119.19 C30.84 84.54, 63.28 51.2, 103.14 2.21 M1.45 119.19 C26.25 91.19, 50.29 63.72, 103.14 2.21 M1.84 124.83 C28.82 94.52, 54.57 62.65, 108.78 1.81 M1.84 124.83 C31.22 90.89, 60.89 56.81, 108.78 1.81 M1.58 131.23 C39.36 89.74, 74.73 48.05, 113.77 2.17 M1.58 131.23 C31.52 96.65, 62.31 62.67, 113.77 2.17 M1.98 136.87 C45.8 87.83, 89.37 35.05, 119.41 1.78 M1.98 136.87 C38.44 94.39, 76.42 52.14, 119.41 1.78 M1.72 143.27 C29.31 112.26, 53.1 85.57, 124.4 2.14 M1.72 143.27 C42.74 92.72, 85.35 44.17, 124.4 2.14 M1.45 149.67 C32.67 117.5, 61.36 84.49, 130.04 1.74 M1.45 149.67 C43.47 101.21, 84.97 53.66, 130.04 1.74 M1.85 155.31 C44.4 108.78, 82.86 63.34, 135.03 2.1 M1.85 155.31 C37.81 113.25, 74.96 71.37, 135.03 2.1 M1.59 161.71 C31.47 124.98, 64.17 87.17, 140.67 1.71 M1.59 161.71 C49.13 106.03, 97.46 50.49, 140.67 1.71 M1.98 167.35 C34.09 131.45, 66.24 92.96, 145.66 2.07 M1.98 167.35 C59.81 101.1, 116.36 35.89, 145.66 2.07 M1.72 173.75 C58.1 108, 111.91 43.25, 150.65 2.43 M1.72 173.75 C41.23 127.01, 81.46 80.79, 150.65 2.43 M1.46 180.14 C52.05 119.64, 103.21 61.21, 156.29 2.03 M1.46 180.14 C62.81 109.54, 123.05 40.87, 156.29 2.03 M1.85 185.79 C53.16 126.62, 105.08 65.71, 161.28 2.39 M1.85 185.79 C36.07 145.38, 71.71 104.07, 161.28 2.39 M1.59 192.19 C51.25 139.01, 95.05 84.31, 166.92 2 M1.59 192.19 C46.54 139.22, 91.6 87.9, 166.92 2 M1.99 197.83 C51.5 140.73, 100.12 82.28, 171.91 2.36 M1.99 197.83 C62.89 126.86, 124.88 55.39, 171.91 2.36 M1.72 204.23 C45.42 153.93, 87.46 105.35, 177.55 1.96 M1.72 204.23 C39.62 161.25, 76.54 117.9, 177.55 1.96 M1.46 210.62 C61.15 139.88, 121.19 69.41, 182.54 2.32 M1.46 210.62 C57.18 148.5, 112.79 84.5, 182.54 2.32 M1.86 216.27 C57.34 151.07, 113.54 86.61, 188.18 1.93 M1.86 216.27 C58.97 151.27, 115.3 85.5, 188.18 1.93 M1.6 222.66 C61.8 155.3, 120.7 87.34, 193.17 2.29 M1.6 222.66 C59.08 156.74, 116.24 92.06, 193.17 2.29 M1.99 228.31 C47.32 179.05, 89.1 125.66, 198.81 1.9 M1.99 228.31 C79.36 139.45, 157.11 49.64, 198.81 1.9 M1.73 234.71 C60.04 167.71, 116.5 104.9, 203.8 2.26 M1.73 234.71 C44.23 184.64, 87.9 133.75, 203.8 2.26 M1.47 241.1 C68.13 163.47, 135.53 83.75, 209.44 1.86 M1.47 241.1 C56.16 177.27, 110.86 114.44, 209.44 1.86 M1.86 246.75 C72.21 167.98, 139.39 88.69, 214.43 2.22 M1.86 246.75 C42.51 198.46, 85.99 149.01, 214.43 2.22 M1.6 253.14 C88.86 152.98, 173.55 52.81, 220.07 1.83 M1.6 253.14 C53.09 192.74, 105.54 131.29, 220.07 1.83 M2 258.79 C74.71 176.49, 145.1 95.63, 225.06 2.19 M2 258.79 C49.73 204.39, 98.07 149.55, 225.06 2.19 M1.73 265.19 C84.84 168.55, 168.58 73.3, 230.7 1.79 M1.73 265.19 C89.92 162.82, 177.62 61.3, 230.7 1.79 M1.47 271.58 C90.62 170.04, 176.14 69.99, 235.69 2.15 M1.47 271.58 C64.47 198.09, 127.8 125.06, 235.69 2.15 M1.87 277.23 C60.72 211.37, 117.46 146.85, 241.33 1.76 M1.87 277.23 C74.95 194.63, 146.7 110.57, 241.33 1.76 M1.61 283.62 C92.6 177.52, 185.17 70.31, 246.32 2.12 M1.61 283.62 C55.07 223.47, 108.64 160.58, 246.32 2.12 M2 289.27 C92.69 182.38, 184.09 75.88, 251.96 1.72 M2 289.27 C84.64 190.91, 168.35 94.11, 251.96 1.72 M1.74 295.66 C66.52 222.11, 130.79 148.77, 256.95 2.08 M1.74 295.66 C89.57 193.78, 178.52 91.94, 256.95 2.08 M2.13 301.31 C101.52 187.24, 201.91 71.92, 262.59 1.69 M2.13 301.31 C99.94 186.64, 198.1 74.41, 262.59 1.69 M3.18 306.2 C87.43 210.41, 171.53 114.84, 267.58 2.05 M3.18 306.2 C104.81 188.43, 208.9 69.72, 267.58 2.05 M4.24 311.08 C69.63 234.33, 135.62 159.62, 272.56 2.41 M4.24 311.08 C71.14 235.72, 137.57 158.54, 272.56 2.41 M5.94 315.22 C87.21 218.01, 170.01 124.5, 278.21 2.01 M5.94 315.22 C91.48 215.5, 178.27 115.48, 278.21 2.01 M8.96 317.84 C65.37 252.56, 123.11 186.68, 283.19 2.37 M8.96 317.84 C95.25 215.72, 183.14 115.19, 283.19 2.37 M11.32 321.22 C110.14 208.28, 207.6 95.01, 288.84 1.98 M11.32 321.22 C107.51 210.24, 202.89 100.53, 288.84 1.98 M14.34 323.85 C83.75 245.36, 153.09 164.63, 293.82 2.34 M14.34 323.85 C97.22 226.31, 180.84 129.86, 293.82 2.34 M18.67 324.96 C79.44 254.5, 141.44 185.42, 299.47 1.94 M18.67 324.96 C108.95 221.58, 199.43 116.6, 299.47 1.94 M22.35 326.83 C91.6 247.7, 161.51 169.25, 304.45 2.3 M22.35 326.83 C87.18 251.47, 153.21 175.14, 304.45 2.3 M26.68 327.94 C99.56 243.04, 170.5 160.62, 310.1 1.91 M26.68 327.94 C124.51 213.34, 222.85 100.99, 310.1 1.91 M32.32 327.55 C141.63 200.67, 251.8 75.34, 315.08 2.27 M32.32 327.55 C121.55 226.32, 210.37 123.95, 315.08 2.27 M37.97 327.16 C103.1 251.77, 171.4 173.33, 320.73 1.88 M37.97 327.16 C135.65 213.47, 234.5 99.14, 320.73 1.88 M42.95 327.52 C147.63 209.85, 251.37 88.39, 325.71 2.24 M42.95 327.52 C119.01 238.9, 195.56 150.78, 325.71 2.24 M48.6 327.12 C143.16 217.63, 240.39 106.24, 331.36 1.84 M48.6 327.12 C134.88 228.15, 221.87 126.81, 331.36 1.84 M53.58 327.48 C111.37 262.79, 168.04 196.49, 336.34 2.2 M53.58 327.48 C157.57 205.99, 262.35 84.96, 336.34 2.2 M59.23 327.09 C159.07 211.95, 259.7 97.59, 341.99 1.81 M59.23 327.09 C126.27 247.94, 194.51 170.12, 341.99 1.81 M64.21 327.45 C122.06 259.7, 181.29 192.71, 346.97 2.17 M64.21 327.45 C127.55 253.44, 192.56 180.06, 346.97 2.17 M69.86 327.05 C148.98 237.02, 226.66 149.32, 352.62 1.77 M69.86 327.05 C184 197.47, 296.71 67.15, 352.62 1.77 M74.84 327.41 C134.3 258.43, 194.18 188.4, 357.6 2.13 M74.84 327.41 C187.82 198.52, 299.98 69.44, 357.6 2.13 M80.49 327.02 C166.25 228.45, 254.07 127.53, 363.25 1.74 M80.49 327.02 C159.41 234.72, 238.82 143.01, 363.25 1.74 M85.47 327.38 C184.76 213.95, 282.39 100.65, 368.23 2.1 M85.47 327.38 C188.18 209.73, 291.31 91.03, 368.23 2.1 M91.12 326.98 C169.39 238.31, 246.29 151.13, 373.88 1.7 M91.12 326.98 C155.1 253.19, 219.62 179.26, 373.88 1.7 M96.1 327.34 C170.86 243.86, 244.68 157.45, 378.86 2.06 M96.1 327.34 C201.54 208.12, 305.27 88.76, 378.86 2.06 M101.75 326.95 C214.21 200.46, 325.68 72.47, 383.85 2.42 M101.75 326.95 C161.23 256.63, 221.12 187.3, 383.85 2.42 M106.73 327.31 C196.01 225.21, 285.34 122.68, 389.49 2.03 M106.73 327.31 C212.54 205.91, 318.45 82.59, 389.49 2.03 M112.38 326.91 C197.17 228.09, 283.9 129.9, 394.48 2.39 M112.38 326.91 C187.19 242.21, 261.1 156.78, 394.48 2.39 M117.36 327.27 C220.25 210.17, 323.45 91.89, 400.12 1.99 M117.36 327.27 C205.02 226.04, 292.45 125.09, 400.12 1.99 M123.01 326.88 C192.99 246.91, 265.33 165.74, 405.11 2.35 M123.01 326.88 C186.1 252.29, 251 178.31, 405.11 2.35 M127.99 327.24 C236.59 200.58, 345.11 75.71, 410.75 1.96 M127.99 327.24 C188.45 256.45, 250.61 184.49, 410.75 1.96 M133.64 326.85 C213.33 233.67, 294.65 140.2, 415.74 2.32 M133.64 326.85 C196.24 258.06, 257.05 188.45, 415.74 2.32 M138.62 327.21 C215.27 241.6, 289.04 156.55, 421.38 1.93 M138.62 327.21 C223.64 229.7, 308.98 130.49, 421.38 1.93 M144.27 326.81 C219.58 239.22, 295.56 150.44, 426.37 2.29 M144.27 326.81 C246.88 209.85, 349.47 92.3, 426.37 2.29 M149.25 327.17 C259.72 200.83, 370.14 72.54, 432.01 1.89 M149.25 327.17 C231.01 230.83, 314.81 135.18, 432.01 1.89 M154.24 327.53 C232.37 235.92, 313.33 143.91, 437 2.25 M154.24 327.53 C225.93 244.93, 296.87 163.75, 437 2.25 M159.88 327.14 C236.48 241.18, 313.58 151.98, 442.64 1.86 M159.88 327.14 C237.6 239.01, 314.72 150.39, 442.64 1.86 M164.87 327.5 C278.62 197.38, 392.44 67.84, 447.63 2.22 M164.87 327.5 C250.52 229.18, 337.43 129.39, 447.63 2.22 M170.51 327.1 C257.88 224.07, 346.41 122.79, 453.27 1.82 M170.51 327.1 C243.1 246, 314.8 163.45, 453.27 1.82 M175.5 327.46 C262.68 225.68, 350.01 123.34, 458.26 2.18 M175.5 327.46 C286.62 200.99, 396.12 74.02, 458.26 2.18 M181.14 327.07 C246.37 250.26, 313.62 171.71, 463.9 1.79 M181.14 327.07 C291.66 197.94, 402.75 69.82, 463.9 1.79 M186.13 327.43 C277.78 221.39, 369.32 117.19, 468.89 2.15 M186.13 327.43 C298.08 195.9, 410.67 66.12, 468.89 2.15 M191.77 327.03 C270.51 238.86, 349.29 149.48, 474.53 1.75 M191.77 327.03 C304.99 197.22, 416.55 69.1, 474.53 1.75 M196.76 327.39 C293.42 217.72, 390.19 106.56, 479.52 2.11 M196.76 327.39 C277.38 233.56, 357.38 140.41, 479.52 2.11 M202.4 327 C307.39 208.58, 410.78 87.6, 485.17 1.72 M202.4 327 C285.7 231.78, 369.83 134.09, 485.17 1.72 M207.39 327.36 C288.38 233.56, 370.1 139.89, 492.12 -0.19 M207.39 327.36 C272.78 252.79, 338.35 176.67, 492.12 -0.19 M213.03 326.96 C316.93 206.88, 420.34 88.6, 497.11 0.17 M213.03 326.96 C293.8 235.5, 372.22 144.04, 497.11 0.17 M218.02 327.32 C299.78 234.86, 380.76 139.98, 500.78 2.04 M218.02 327.32 C292.48 241.61, 366.2 157.24, 500.78 2.04 M223.66 326.93 C284.69 256.19, 347.37 183.59, 505.11 3.16 M223.66 326.93 C297.97 243.53, 370.46 159.24, 505.11 3.16 M228.65 327.29 C308.39 236.62, 387.52 144.58, 509.44 4.27 M228.65 327.29 C295.85 248.12, 363.41 170.21, 509.44 4.27 M234.29 326.89 C289.47 262.36, 348.33 196.13, 513.12 6.14 M234.29 326.89 C319.31 231.93, 403.3 136.04, 513.12 6.14 M239.28 327.25 C301.09 257.79, 360.05 188.78, 516.14 8.77 M239.28 327.25 C316.88 239.2, 393.08 150.62, 516.14 8.77 M244.92 326.86 C326.4 232.81, 407.51 140.23, 518.5 12.15 M244.92 326.86 C301.11 263.86, 357.13 199.33, 518.5 12.15 M249.91 327.22 C319.55 248.23, 386.8 172.04, 521.52 14.77 M249.91 327.22 C335.67 226, 422.58 127.42, 521.52 14.77 M255.55 326.83 C358.06 209.44, 458.17 94.76, 523.23 18.9 M255.55 326.83 C340.62 231.59, 424.14 136.08, 523.23 18.9 M260.54 327.19 C349.47 222.63, 442.22 118.57, 523.62 24.55 M260.54 327.19 C353.53 222.17, 445.49 115.72, 523.62 24.55 M265.53 327.55 C328.34 253.14, 392.01 177.23, 524.67 29.44 M265.53 327.55 C344.25 236.65, 424.53 144.57, 524.67 29.44 M271.17 327.15 C343.68 245.77, 415.33 164.12, 525.72 34.32 M271.17 327.15 C322.67 266.74, 373.78 207.32, 525.72 34.32 M276.16 327.51 C327.25 267.42, 382.29 205.53, 526.12 39.97 M276.16 327.51 C330.77 264.98, 385.61 202.64, 526.12 39.97 M281.8 327.12 C339.87 257.39, 399.7 190.64, 525.86 46.36 M281.8 327.12 C366.69 231.38, 450.01 134.32, 525.86 46.36 M286.79 327.48 C355.44 247.96, 422.6 171.62, 526.25 52.01 M286.79 327.48 C335.47 270.75, 383.25 214.7, 526.25 52.01 M292.43 327.08 C342.67 267.74, 394.95 207.24, 525.99 58.41 M292.43 327.08 C358.23 250.87, 424.1 174.71, 525.99 58.41 M297.42 327.44 C387.33 225.53, 474.26 125.6, 525.73 64.8 M297.42 327.44 C382.48 230.22, 466.33 133.44, 525.73 64.8 M303.06 327.05 C351.73 270.34, 400.74 213.27, 526.12 70.45 M303.06 327.05 C386.79 230.31, 470.97 135.16, 526.12 70.45 M308.05 327.41 C386.17 239.77, 463.15 150.9, 525.86 76.84 M308.05 327.41 C388.59 236.99, 467.74 147.23, 525.86 76.84 M313.69 327.01 C369.28 263.24, 422.49 201.8, 526.25 82.49 M313.69 327.01 C356.6 278.55, 399.4 229.18, 526.25 82.49 M318.68 327.37 C389.51 250.21, 455.61 171.51, 525.99 88.89 M318.68 327.37 C394.1 239.43, 470.89 152.86, 525.99 88.89 M324.32 326.98 C394.88 247.27, 465.76 165.54, 525.73 95.28 M324.32 326.98 C405.31 233.94, 486.11 141.9, 525.73 95.28 M329.31 327.34 C402.08 245.06, 473.98 160.39, 526.13 100.93 M329.31 327.34 C391.8 255.57, 453.59 184.9, 526.13 100.93 M334.95 326.94 C398.84 253.03, 463 178.99, 525.86 107.32 M334.95 326.94 C380.38 272.37, 426.95 218.73, 525.86 107.32 M339.94 327.3 C380.8 281.71, 423.88 231.56, 526.26 112.97 M339.94 327.3 C390.95 270.12, 440.11 213.13, 526.26 112.97 M345.58 326.91 C390.76 272.86, 434.25 223.59, 526 119.36 M345.58 326.91 C391.34 276.98, 434.51 228.01, 526 119.36 M350.57 327.27 C414.94 252.57, 481.79 178.26, 525.74 125.76 M350.57 327.27 C392 280.57, 431.8 233.48, 525.74 125.76 M356.21 326.88 C416.13 261.75, 474.25 193.3, 526.13 131.41 M356.21 326.88 C414.21 259.13, 473.79 190.44, 526.13 131.41 M361.2 327.24 C426.6 251.83, 488.9 178.93, 525.87 137.8 M361.2 327.24 C420.32 257.14, 480.65 186.92, 525.87 137.8 M366.84 326.84 C410.84 275.94, 455.83 223.93, 526.26 143.45 M366.84 326.84 C424.53 260.92, 481.94 194.48, 526.26 143.45 M371.83 327.2 C428.42 258.7, 487.61 194.48, 526 149.84 M371.83 327.2 C426.63 266.07, 480.82 203.7, 526 149.84 M377.47 326.81 C426.81 270.17, 477.3 215.29, 525.74 156.24 M377.47 326.81 C422.16 274.3, 468.72 222.12, 525.74 156.24 M382.46 327.17 C430.92 276.49, 477.11 220.59, 526.14 161.89 M382.46 327.17 C414.39 291.75, 445.3 255.04, 526.14 161.89 M387.45 327.53 C436.73 269.39, 488.17 212.91, 525.87 168.28 M387.45 327.53 C424.99 283.02, 462.74 238.66, 525.87 168.28 M393.09 327.13 C438.61 274.72, 483.23 224.9, 526.27 173.93 M393.09 327.13 C439.11 276.5, 484.2 223.38, 526.27 173.93 M398.08 327.49 C430.96 286.79, 465.57 246.43, 526.01 180.32 M398.08 327.49 C445.89 273.67, 492.65 218.99, 526.01 180.32 M403.72 327.1 C435.83 294.92, 462.65 260.31, 525.75 186.72 M403.72 327.1 C430.1 294.18, 457.74 263.23, 525.75 186.72 M408.71 327.46 C449.9 280.03, 492.57 229.87, 526.14 192.36 M408.71 327.46 C448.7 283, 489.29 235.54, 526.14 192.36 M414.35 327.06 C455.23 281.34, 495.35 238.16, 525.88 198.76 M414.35 327.06 C450.82 285.2, 487.51 241.63, 525.88 198.76 M419.34 327.42 C455.12 285.61, 491.93 245.99, 526.27 204.41 M419.34 327.42 C439.29 301.35, 462.16 277.71, 526.27 204.41 M424.98 327.03 C456.66 291.94, 490.34 251.54, 526.01 210.8 M424.98 327.03 C449.77 298.73, 474.6 269.51, 526.01 210.8 M429.97 327.39 C459.41 296.52, 487.02 260.46, 525.75 217.2 M429.97 327.39 C468.29 284.12, 504.85 242.29, 525.75 217.2 M435.61 326.99 C461.3 299.44, 485.55 267.21, 526.15 222.84 M435.61 326.99 C460.97 296.12, 489.03 264.03, 526.15 222.84 M440.6 327.35 C474.76 288.64, 506.88 251.93, 525.88 229.24 M440.6 327.35 C471.18 292.13, 502.77 255.6, 525.88 229.24 M446.24 326.96 C468.46 300.41, 493.67 273.18, 526.28 234.89 M446.24 326.96 C475.8 293.68, 504.41 260.7, 526.28 234.89 M451.23 327.32 C475.38 299.17, 501.63 270.76, 526.02 241.28 M451.23 327.32 C469.31 305.41, 489.7 282.24, 526.02 241.28 M456.87 326.93 C481.58 301.04, 500.65 275.27, 525.76 247.68 M456.87 326.93 C474.97 306.75, 491.7 283.92, 525.76 247.68 M461.86 327.29 C479.16 305.08, 496.76 285.78, 526.15 253.32 M461.86 327.29 C476.24 310.12, 492.37 292.5, 526.15 253.32 M467.5 326.89 C479.71 310.09, 494.94 291.49, 525.89 259.72 M467.5 326.89 C488.06 302.25, 507.92 280.42, 525.89 259.72 M472.49 327.25 C492.68 305.48, 514.91 280.3, 526.28 265.36 M472.49 327.25 C487.4 309.53, 503.12 290.36, 526.28 265.36 M478.13 326.86 C488.47 314.82, 501.02 301.89, 526.02 271.76 M478.13 326.86 C494.37 308.4, 509.53 291.61, 526.02 271.76 M483.12 327.22 C490.67 318.47, 500.68 307.65, 525.76 278.16 M483.12 327.22 C495.09 313.81, 505.06 301.86, 525.76 278.16 M488.76 326.82 C497.52 319.49, 503.08 310.69, 526.16 283.8 M488.76 326.82 C503.25 309.44, 519.32 291.65, 526.16 283.8 M493.09 327.94 C505.08 317.62, 513.9 302.82, 525.89 290.2 M493.09 327.94 C502.03 319.2, 508 310.55, 525.89 290.2 M499.39 326.79 C506.56 318.07, 517.93 307.28, 525.63 296.6 M499.39 326.79 C509.36 314.64, 519.83 304.66, 525.63 296.6 M506.35 324.88 C514.14 320.14, 518.5 309.82, 524.71 303.75 M506.35 324.88 C513.22 318.53, 518.16 311.1, 524.71 303.75" stroke="#a5d8ff" stroke-width="0.5" fill="none"></path><path d="M32 0 M32 0 C189.2 -1.99, 346.91 -2.44, 491.81 0 M32 0 C197.76 -2.47, 363.03 -2.04, 491.81 0 M491.81 0 C514.45 0.73, 523.43 9.69, 523.81 32 M491.81 0 C512.37 1.49, 524.93 10.83, 523.81 32 M523.81 32 C523.93 112.84, 525.27 193.84, 523.81 294.61 M523.81 32 C522.65 95.88, 521.81 158.59, 523.81 294.61 M523.81 294.61 C523.37 316.8, 512.84 325.9, 491.81 326.61 M523.81 294.61 C525.64 314.38, 512.74 326.83, 491.81 326.61 M491.81 326.61 C370.09 327.95, 250.1 326.68, 32 326.61 M491.81 326.61 C400.21 325.63, 308.18 325.02, 32 326.61 M32 326.61 C8.89 326.88, -1.19 317.36, 0 294.61 M32 326.61 C9.87 327.53, -1.6 315.69, 0 294.61 M0 294.61 C-0.26 234.83, -2 175.2, 0 32 M0 294.61 C0.23 206.21, 0.02 115.91, 0 32 M0 32 C1.9 12.37, 12.33 -1.93, 32 0 M0 32 C-2.13 10.13, 12.26 -1.29, 32 0" stroke="#1971c2" stroke-width="1" fill="none"></path></g><g stroke-linecap="round" transform="translate(313.7154017857142 86.31316375732439) rotate(0 94.0926426478793 106.03919982910153)"><path d="M32 0 M32 0 C73.51 -0.48, 117.11 -1.2, 156.19 0 M32 0 C60.2 0.59, 87.89 -0.51, 156.19 0 M156.19 0 C179.48 -0.56, 189.31 11.25, 188.19 32 M156.19 0 C178.13 -0.99, 190.3 12.48, 188.19 32 M188.19 32 C185.61 85.76, 185.82 142.65, 188.19 180.08 M188.19 32 C188.15 90.9, 188.1 148.25, 188.19 180.08 M188.19 180.08 C186.91 203.39, 175.71 211.64, 156.19 212.08 M188.19 180.08 C186.11 201.48, 179.61 210.89, 156.19 212.08 M156.19 212.08 C111.56 213.32, 68.45 212.64, 32 212.08 M156.19 212.08 C108.05 212.55, 57.66 213.75, 32 212.08 M32 212.08 C11.31 212.75, 1.09 203.28, 0 180.08 M32 212.08 C9.52 211.69, -1.96 202.74, 0 180.08 M0 180.08 C-0.64 121.02, -0.62 62.98, 0 32 M0 180.08 C1.68 137.87, 0.65 96.36, 0 32 M0 32 C-0.53 11.48, 8.96 -0.99, 32 0 M0 32 C1.47 11.28, 11.27 -1.46, 32 0" stroke="#e03131" stroke-width="1" fill="none"></path></g><g transform="translate(188.86760166713157 28.5359017508369) rotate(0 85.469970703125 17.5)"><text x="0" y="0" font-family="Virgil, Segoe UI Emoji" font-size="28px" fill="#1971c2" text-anchor="start" style="white-space: pre;" direction="ltr" dominant-baseline="text-before-edge">NextJS Blog</text></g><g transform="translate(352.6327165876115 102.17009844098783) rotate(0 56.489959716796875 12.5)"><text x="0" y="0" font-family="Virgil, Segoe UI Emoji" font-size="20px" fill="#e03131" text-anchor="start" style="white-space: pre;" direction="ltr" dominant-baseline="text-before-edge">Admin Panel</text></g><g stroke-linecap="round" transform="translate(346.4322030203681 154.04724121093756) rotate(0 60 55.49999999999997)"><path d="M6.73 7.18 C6.73 7.18, 6.73 7.18, 6.73 7.18 M6.73 7.18 C6.73 7.18, 6.73 7.18, 6.73 7.18 M6.47 13.57 C7.75 9.64, 9.78 9.95, 16.31 2.25 M6.47 13.57 C8.95 10.88, 10.14 8.25, 16.31 2.25 M2.93 23.74 C7.11 17.31, 13.25 12.07, 22.61 1.1 M2.93 23.74 C9.29 16.95, 13.58 11.25, 22.61 1.1 M3.32 29.39 C13.13 20.73, 20.04 8.47, 28.25 0.71 M3.32 29.39 C11.41 21.73, 17.9 13.86, 28.25 0.71 M3.06 35.79 C12.82 26.9, 21.52 15.54, 33.9 0.31 M3.06 35.79 C13.64 23.84, 24.33 11.14, 33.9 0.31 M2.8 42.18 C15.97 29.17, 26.7 16.3, 38.88 0.67 M2.8 42.18 C16.08 28.29, 28.38 12.68, 38.88 0.67 M3.19 47.83 C13.64 35.15, 21.68 25.05, 44.53 0.28 M3.19 47.83 C18.72 29.15, 34.52 12.13, 44.53 0.28 M2.93 54.22 C17.25 38.32, 30.26 19.12, 49.51 0.64 M2.93 54.22 C15.54 39.43, 26.99 26.59, 49.51 0.64 M3.33 59.87 C21.55 35.4, 43.06 12.48, 54.5 1 M3.33 59.87 C21.42 40.53, 38.1 20.44, 54.5 1 M3.07 66.27 C19.96 47.2, 39.92 27.18, 60.14 0.61 M3.07 66.27 C22.17 45, 41.53 23.31, 60.14 0.61 M2.8 72.66 C21.01 50.95, 36.33 31.82, 65.13 0.97 M2.8 72.66 C23.15 50.3, 44.46 24.9, 65.13 0.97 M3.2 78.31 C26.28 53.84, 46.24 31.54, 70.77 0.57 M3.2 78.31 C23.07 53.39, 44.51 30.83, 70.77 0.57 M2.94 84.7 C25.74 58.9, 52.1 29.5, 75.76 0.93 M2.94 84.7 C19.6 66.17, 34.5 46.86, 75.76 0.93 M2.68 91.1 C31.36 59.16, 55.87 26.89, 81.4 0.54 M2.68 91.1 C34.67 55.31, 64.95 20.69, 81.4 0.54 M3.73 95.99 C26.06 70.18, 49.07 44.02, 86.39 0.9 M3.73 95.99 C35.22 60.36, 66.05 24.11, 86.39 0.9 M4.78 100.88 C21.47 80.47, 42.89 54.64, 91.38 1.26 M4.78 100.88 C21.98 81.39, 38.53 60.73, 91.38 1.26 M7.14 104.26 C37.89 65.46, 73.54 28.22, 97.02 0.86 M7.14 104.26 C37.8 69.95, 68.33 35.03, 97.02 0.86 M10.16 106.88 C46.75 66.42, 79.97 28.87, 100.69 2.73 M10.16 106.88 C28.52 85.03, 47.51 63.05, 100.69 2.73 M13.18 109.51 C48.03 71.96, 84.43 29.83, 105.68 3.09 M13.18 109.51 C47.18 71.15, 80.49 32.68, 105.68 3.09 M17.51 110.62 C43.33 83.81, 66.28 54.21, 109.36 4.96 M17.51 110.62 C47.69 75.39, 79.44 38.72, 109.36 4.96 M21.84 111.74 C55.78 73.35, 85.77 36.41, 113.03 6.83 M21.84 111.74 C46.79 82.53, 70.78 54.62, 113.03 6.83 M27.48 111.34 C55.49 79.65, 83.9 43.33, 116.05 9.45 M27.48 111.34 C57.52 77.12, 87.13 44.39, 116.05 9.45 M32.47 111.7 C59.2 82.7, 86.98 51.39, 118.41 12.83 M32.47 111.7 C66.74 74.09, 99.77 34.89, 118.41 12.83 M38.11 111.31 C54.59 93.33, 74.46 71.33, 120.12 16.97 M38.11 111.31 C69.3 73.95, 102.73 35.52, 120.12 16.97 M43.1 111.67 C68.95 85.63, 93.81 57.56, 120.51 22.61 M43.1 111.67 C61.5 90.38, 77.73 70.1, 120.51 22.61 M48.74 111.27 C76.89 80, 106.33 44.95, 120.91 28.25 M48.74 111.27 C73.39 82.11, 99.19 53.11, 120.91 28.25 M53.73 111.63 C79.03 81.09, 104.12 55.65, 120.65 34.65 M53.73 111.63 C65.96 95.08, 79.83 79.29, 120.65 34.65 M59.37 111.24 C81.03 83.59, 105.23 60.72, 120.39 41.05 M59.37 111.24 C75.94 90.68, 94.43 72.41, 120.39 41.05 M64.36 111.6 C88.4 86.15, 109.55 60.49, 120.78 46.69 M64.36 111.6 C80.82 92.12, 97.22 73.99, 120.78 46.69 M69.35 111.96 C88.54 87.04, 109.05 67.31, 120.52 53.09 M69.35 111.96 C85.16 94.6, 100.58 76.57, 120.52 53.09 M74.99 111.56 C93.27 90.09, 108.96 71.93, 120.26 59.49 M74.99 111.56 C84.44 99.52, 94.1 90.16, 120.26 59.49 M79.98 111.92 C96.51 92.62, 111.72 76.71, 120.65 65.13 M79.98 111.92 C95.03 94.52, 109.86 78.02, 120.65 65.13 M85.62 111.53 C96.68 101.33, 106.93 90.54, 120.39 71.53 M85.62 111.53 C93.5 103.72, 99.76 94.69, 120.39 71.53 M90.61 111.89 C98.4 102.88, 106.87 93.05, 120.13 77.93 M90.61 111.89 C97.89 102.38, 105.4 94.28, 120.13 77.93 M94.94 113 C101.21 103.55, 111.77 94.43, 120.52 83.57 M94.94 113 C101.3 105.49, 107.88 97.57, 120.52 83.57 M100.58 112.61 C108.6 104.03, 111.53 95.77, 120.26 89.97 M100.58 112.61 C106.11 106.22, 109.05 101.63, 120.26 89.97" stroke="#ffc9c9" stroke-width="0.5" fill="none"></path><path d="M27.75 0 M27.75 0 C44.05 -1.16, 58.54 -1.25, 92.25 0 M27.75 0 C48.53 -1.03, 69.41 0.27, 92.25 0 M92.25 0 C110.72 1.28, 120.49 10.72, 120 27.75 M92.25 0 C110.72 -2.08, 122.18 11.21, 120 27.75 M120 27.75 C119 50.39, 118.35 70.44, 120 83.25 M120 27.75 C120.04 43.1, 120.14 59.77, 120 83.25 M120 83.25 C118.35 103.19, 111.94 109.83, 92.25 111 M120 83.25 C121.53 100.1, 111.2 110.25, 92.25 111 M92.25 111 C72.5 112.63, 53.14 109.26, 27.75 111 M92.25 111 C73.28 110.88, 52.24 111.21, 27.75 111 M27.75 111 C10.55 110.77, 0.74 102.62, 0 83.25 M27.75 111 C9.67 110.75, -1.65 100.63, 0 83.25 M0 83.25 C-1.2 63.52, -1.57 42.49, 0 27.75 M0 83.25 C0.7 63.5, -0.79 43.73, 0 27.75 M0 27.75 C0.97 8.54, 10.9 -1.67, 27.75 0 M0 27.75 C-1.36 10.9, 7.24 -1.98, 27.75 0" stroke="#e03131" stroke-width="1" fill="none"></path></g><g transform="translate(387.8122155325751 197.04724121093756) rotate(0 18.61998748779297 12.5)"><text x="18.61998748779297" y="0" font-family="Virgil, Segoe UI Emoji" font-size="20px" fill="#e03131" text-anchor="middle" style="white-space: pre;" direction="ltr" dominant-baseline="text-before-edge">API</text></g><g stroke-linecap="round" transform="translate(329.63092041015614 594.0592575073243) rotate(0 102.5 43.5)"><path d="M5.13 5.79 C5.13 5.79, 5.13 5.79, 5.13 5.79 M5.13 5.79 C5.13 5.79, 5.13 5.79, 5.13 5.79 M0.94 16.71 C3.46 13.05, 8.05 7.69, 13.4 2.37 M0.94 16.71 C6.55 11.67, 10.25 4.93, 13.4 2.37 M0.67 23.11 C8.42 14.28, 12.92 10.5, 19.7 1.22 M0.67 23.11 C5.48 17.91, 12.23 12.02, 19.7 1.22 M0.41 29.51 C8.69 20.56, 13.38 12.16, 24.03 2.34 M0.41 29.51 C5.58 23.45, 10.72 18.72, 24.03 2.34 M0.81 35.15 C8.76 23.35, 20.25 14.37, 29.67 1.94 M0.81 35.15 C10.46 22.38, 21.5 11.01, 29.67 1.94 M0.55 41.55 C14.56 27.6, 28.55 11.67, 34.66 2.3 M0.55 41.55 C7.43 32.6, 14.74 24.15, 34.66 2.3 M0.94 47.19 C10.88 34.36, 25.05 20.85, 40.3 1.91 M0.94 47.19 C11.17 35.12, 21.97 23.23, 40.3 1.91 M0.68 53.59 C15.92 33.88, 33.68 15.71, 45.29 2.27 M0.68 53.59 C11.19 40.67, 22.38 26.59, 45.29 2.27 M0.42 59.99 C17.41 41.87, 31.12 21.31, 50.93 1.88 M0.42 59.99 C13.71 43.68, 28.95 28.38, 50.93 1.88 M0.81 65.63 C11.93 52.3, 25.09 39.3, 55.92 2.24 M0.81 65.63 C14.59 49.83, 28.11 34.64, 55.92 2.24 M1.21 71.27 C16.59 57.07, 29.72 39.72, 61.56 1.84 M1.21 71.27 C21.27 48.44, 40.71 24.79, 61.56 1.84 M2.91 75.41 C22.46 53.19, 43.75 27.1, 66.55 2.2 M2.91 75.41 C19.06 56.81, 33.25 39.66, 66.55 2.2 M4.62 79.54 C21.29 60.05, 32.66 46.32, 72.19 1.81 M4.62 79.54 C28.06 53.01, 50.82 28.16, 72.19 1.81 M6.98 82.92 C30.28 59.06, 50.66 32.99, 77.18 2.17 M6.98 82.92 C22.47 66.49, 36.39 48.96, 77.18 2.17 M10.66 84.79 C26.69 67.3, 38.7 53.12, 82.82 1.77 M10.66 84.79 C28.64 64.13, 47.4 45.2, 82.82 1.77 M13.68 87.41 C31.33 66.7, 48.87 48.76, 87.81 2.13 M13.68 87.41 C28.14 68.28, 43.75 51.16, 87.81 2.13 M18.66 87.77 C36.44 68.92, 53.77 49.77, 92.8 2.49 M18.66 87.77 C47.49 53.38, 77.95 19.46, 92.8 2.49 M23.65 88.13 C38.97 70.64, 54.19 51.81, 98.44 2.1 M23.65 88.13 C39.82 67.91, 57.02 49.01, 98.44 2.1 M28.64 88.49 C55.3 61.06, 78.89 30.57, 103.43 2.46 M28.64 88.49 C56.62 57.79, 81.56 26.43, 103.43 2.46 M34.28 88.1 C61.78 54.74, 91.83 22.1, 109.07 2.06 M34.28 88.1 C60.15 57.77, 84.29 29.12, 109.07 2.06 M39.27 88.46 C55.35 68.69, 72.58 51.43, 114.06 2.42 M39.27 88.46 C60.75 63.43, 83.13 38.9, 114.06 2.42 M44.91 88.07 C72.63 58.9, 98.61 26.66, 119.7 2.03 M44.91 88.07 C70.06 59.4, 96.78 29.78, 119.7 2.03 M49.9 88.43 C80.62 56.77, 106.81 22.39, 124.69 2.39 M49.9 88.43 C76.97 56.64, 104.07 25.63, 124.69 2.39 M54.88 88.79 C79.59 62.57, 104.57 34.92, 130.33 1.99 M54.88 88.79 C81.04 59.67, 106.51 28.88, 130.33 1.99 M60.53 88.39 C80.21 66.28, 101.25 42.88, 135.32 2.35 M60.53 88.39 C88.46 56.67, 115.39 25.19, 135.32 2.35 M65.51 88.75 C94.34 55.6, 124.79 23.05, 140.96 1.96 M65.51 88.75 C93.91 56.26, 120.35 24.67, 140.96 1.96 M71.16 88.36 C86.55 67.8, 103.23 50.98, 145.95 2.32 M71.16 88.36 C93.54 64.53, 113.93 38.92, 145.95 2.32 M76.15 88.72 C93.01 67.31, 110.4 47.17, 151.59 1.93 M76.15 88.72 C100.38 60.25, 124.94 32.9, 151.59 1.93 M81.79 88.32 C107.35 56.75, 133.95 29.91, 156.58 2.29 M81.79 88.32 C108.54 58.5, 133.15 28.41, 156.58 2.29 M86.78 88.68 C101.54 70.68, 120.42 49.7, 162.22 1.89 M86.78 88.68 C106.18 67.23, 123.93 45.6, 162.22 1.89 M92.42 88.29 C115.78 65.56, 135.74 41.44, 167.21 2.25 M92.42 88.29 C118.08 56.73, 144.61 27.71, 167.21 2.25 M97.41 88.65 C125.42 60.64, 148.29 28.21, 172.85 1.86 M97.41 88.65 C119.56 61.83, 142.77 37.32, 172.85 1.86 M103.05 88.25 C120.12 68.65, 136.46 48.84, 177.84 2.22 M103.05 88.25 C127.03 62.13, 150.79 34.64, 177.84 2.22 M108.04 88.61 C123.5 67.86, 143.89 49.02, 184.14 1.07 M108.04 88.61 C130.86 61.7, 154.26 35.68, 184.14 1.07 M113.68 88.22 C137.39 60.84, 162.47 34.6, 189.13 1.43 M113.68 88.22 C134.66 62.87, 154.43 40.26, 189.13 1.43 M118.67 88.58 C144.58 55.35, 171.58 24.81, 193.46 2.54 M118.67 88.58 C136.01 66.61, 155.11 46.97, 193.46 2.54 M124.31 88.18 C140.25 71.38, 154.2 54.61, 197.13 4.41 M124.31 88.18 C142.33 65.03, 162.82 43.16, 197.13 4.41 M129.3 88.54 C146.86 68.02, 163.69 50.38, 200.81 6.28 M129.3 88.54 C156.21 58.58, 181.94 27.51, 200.81 6.28 M134.94 88.15 C156.69 63.01, 177.48 43.72, 202.51 10.41 M134.94 88.15 C157.61 61.88, 181.81 32.58, 202.51 10.41 M139.93 88.51 C154.39 71.93, 171.07 55.5, 204.22 14.55 M139.93 88.51 C158.36 67.07, 176.97 46.86, 204.22 14.55 M145.57 88.12 C166.99 62.1, 187.69 38.5, 206.58 17.93 M145.57 88.12 C168.45 60.48, 191.39 33.78, 206.58 17.93 M150.56 88.48 C167.35 68.79, 183.04 51.54, 206.32 24.33 M150.56 88.48 C165.04 70.64, 180.1 53.73, 206.32 24.33 M156.2 88.08 C168.91 72.3, 180.35 60.22, 206.72 29.97 M156.2 88.08 C168.01 75.05, 178.99 60.45, 206.72 29.97 M161.19 88.44 C174.36 72.15, 190.27 54.04, 206.45 36.37 M161.19 88.44 C175.62 73.06, 189.19 56.44, 206.45 36.37 M166.17 88.8 C176.2 79.14, 186.2 69.62, 206.85 42.01 M166.17 88.8 C181.67 70.98, 196.49 54.25, 206.85 42.01 M171.82 88.41 C184.46 75.22, 193.68 62.09, 206.59 48.41 M171.82 88.41 C183.74 75.2, 196.57 60.63, 206.59 48.41 M176.8 88.77 C185.41 81.01, 189.72 72.22, 206.33 54.8 M176.8 88.77 C185.49 78.97, 193.71 68.62, 206.33 54.8 M183.76 86.86 C188.98 81.23, 194.62 71.75, 206.72 60.45 M183.76 86.86 C192.5 77.58, 200.49 68.32, 206.72 60.45 M190.06 85.71 C192.09 82.66, 196.79 77.43, 206.46 66.85 M190.06 85.71 C194.75 80.26, 200.28 73.38, 206.46 66.85" stroke="#a5d8ff" stroke-width="0.5" fill="none"></path><path d="M21.75 0 M21.75 0 C67.01 0.95, 114.82 -0.3, 183.25 0 M21.75 0 C70.25 1.22, 117.28 1.86, 183.25 0 M183.25 0 C196.05 0.46, 204.8 5.84, 205 21.75 M183.25 0 C196.73 -1.2, 206.59 7.31, 205 21.75 M205 21.75 C204.63 34.34, 204.22 47.5, 205 65.25 M205 21.75 C204.42 37.71, 205.09 52.92, 205 65.25 M205 65.25 C206.94 81.49, 198.65 88.96, 183.25 87 M205 65.25 C203.99 78.9, 195.65 84.87, 183.25 87 M183.25 87 C121.53 87.04, 59.24 87.29, 21.75 87 M183.25 87 C147.05 86.18, 111.85 84.96, 21.75 87 M21.75 87 C5.25 87.19, 0.81 79.2, 0 65.25 M21.75 87 C9.52 89.08, -1.3 80.22, 0 65.25 M0 65.25 C-1.12 50.95, -0.22 34.16, 0 21.75 M0 65.25 C0.76 56.27, -0.64 46.46, 0 21.75 M0 21.75 C0.14 8.93, 8.16 0.16, 21.75 0 M0 21.75 C2.17 7.02, 6.84 1.14, 21.75 0" stroke="#1971c2" stroke-width="1" fill="none"></path></g><g transform="translate(372.98097229003895 625.0592575073243) rotate(0 59.14994812011719 12.5)"><text x="59.14994812011719" y="0" font-family="Virgil, Segoe UI Emoji" font-size="20px" fill="#1971c2" text-anchor="middle" style="white-space: pre;" direction="ltr" dominant-baseline="text-before-edge">Github Repo</text></g><g stroke-linecap="round" transform="translate(48.835603986467504 91.93234361921031) rotate(0 97.5 25.5)"><path d="M12.75 0 M12.75 0 C58.87 2.11, 107.99 -0.54, 182.25 0 M12.75 0 C62.24 -1.01, 112.58 -0.57, 182.25 0 M182.25 0 C188.87 -1.42, 193.69 4.29, 195 12.75 M182.25 0 C190.88 -0.95, 195.35 2.18, 195 12.75 M195 12.75 C194.03 21.35, 193.36 27.1, 195 38.25 M195 12.75 C194.54 20.31, 194.47 27.99, 195 38.25 M195 38.25 C196.51 48.32, 189.67 51.55, 182.25 51 M195 38.25 C195.26 46.71, 191.65 49.9, 182.25 51 M182.25 51 C122.8 50.61, 64.13 51.82, 12.75 51 M182.25 51 C146.52 51.75, 109.92 51.94, 12.75 51 M12.75 51 C3.48 52.41, 0.41 45.59, 0 38.25 M12.75 51 C5.6 50.58, 1.93 45.18, 0 38.25 M0 38.25 C-0.2 28.41, -0.66 21.04, 0 12.75 M0 38.25 C-0.09 32.03, -0.72 23.95, 0 12.75 M0 12.75 C-0.21 2.88, 4.63 1.66, 12.75 0 M0 12.75 C-2.29 4.27, 5.41 -1.36, 12.75 0" stroke="#1971c2" stroke-width="1" fill="none"></path></g><g transform="translate(59.17566898890891 104.93234361921031) rotate(0 87.1599349975586 12.5)"><text x="87.1599349975586" y="0" font-family="Virgil, Segoe UI Emoji" font-size="20px" fill="#1971c2" text-anchor="middle" style="white-space: pre;" direction="ltr" dominant-baseline="text-before-edge">Markdown content</text></g><g stroke-linecap="round" transform="translate(52.53589085170188 175.01541246686656) rotate(0 96 25.5)"><path d="M12.75 0 M12.75 0 C75.94 -0.69, 140.94 0.47, 179.25 0 M12.75 0 C66.64 -1.92, 121.77 -1.19, 179.25 0 M179.25 0 C187.86 -0.83, 192.31 2.45, 192 12.75 M179.25 0 C187.74 -0.15, 193.22 3.15, 192 12.75 M192 12.75 C191.66 20.71, 192.37 29.83, 192 38.25 M192 12.75 C192.65 21.38, 191.36 28.72, 192 38.25 M192 38.25 C192.23 46.72, 188.53 50.04, 179.25 51 M192 38.25 C192.98 48.35, 187.79 49.45, 179.25 51 M179.25 51 C131.02 51.06, 86.82 51.6, 12.75 51 M179.25 51 C122.84 52.63, 67.4 51.34, 12.75 51 M12.75 51 C5.42 50.63, 1.67 45.39, 0 38.25 M12.75 51 C5.55 49.83, 0.2 46.37, 0 38.25 M0 38.25 C-0.62 32.06, 0.38 24.82, 0 12.75 M0 38.25 C0.06 28.61, 0.36 21.17, 0 12.75 M0 12.75 C-1.99 4.27, 5.26 -1.19, 12.75 0 M0 12.75 C-1.25 3.44, 5.16 -1.75, 12.75 0" stroke="#1971c2" stroke-width="1" fill="none"></path></g><g transform="translate(86.6859457833425 188.01541246686656) rotate(0 61.849945068359375 12.5)"><text x="61.849945068359375" y="0" font-family="Virgil, Segoe UI Emoji" font-size="20px" fill="#1971c2" text-anchor="middle" style="white-space: pre;" direction="ltr" dominant-baseline="text-before-edge">Contentlayer</text></g><g stroke-linecap="round" transform="translate(58.406160627092504 262.2661601475306) rotate(0 92.5 22.5)"><path d="M11.25 0 M11.25 0 C47.91 1.23, 84.86 -1.55, 173.75 0 M11.25 0 C48.53 -0.45, 85.84 -0.93, 173.75 0 M173.75 0 C181.24 -0.13, 186.06 2.8, 185 11.25 M173.75 0 C182.36 -1.87, 183.94 3.6, 185 11.25 M185 11.25 C185.22 16.15, 185.61 24.19, 185 33.75 M185 11.25 C184.99 19.75, 185.27 27.8, 185 33.75 M185 33.75 C185.86 42.64, 181.29 43.65, 173.75 45 M185 33.75 C184.52 39.05, 182.16 42.94, 173.75 45 M173.75 45 C130.61 43.09, 87.11 44.19, 11.25 45 M173.75 45 C114.15 43.88, 54.21 43.38, 11.25 45 M11.25 45 C4.88 43.98, 0.17 40.92, 0 33.75 M11.25 45 C2.88 44.1, 1.11 40.42, 0 33.75 M0 33.75 C0.99 25.12, -1.71 18.91, 0 11.25 M0 33.75 C-1.04 28.55, 0.46 22.74, 0 11.25 M0 11.25 C-1.09 3.05, 4.54 -1.52, 11.25 0 M0 11.25 C1.88 4.62, 4.61 1.77, 11.25 0" stroke="#1971c2" stroke-width="1" fill="none"></path></g><g transform="translate(121.71618870326438 272.2661601475306) rotate(0 29.189971923828125 12.5)"><text x="29.189971923828125" y="0" font-family="Virgil, Segoe UI Emoji" font-size="20px" fill="#1971c2" text-anchor="middle" style="white-space: pre;" direction="ltr" dominant-baseline="text-before-edge">Pages</text></g><g stroke-linecap="round"><g transform="translate(144.33721285835975 144.0410392713843) rotate(0 0.4367428884689559 15.2935913386371)"><path d="M-1.13 -0.85 C-1.27 3.98, -0.57 24.85, -0.29 29.89 M0.48 1.32 C0.68 6.28, 2.12 26.59, 2.01 31.44" stroke="#1971c2" stroke-width="1" fill="none"></path></g><g transform="translate(144.33721285835975 144.0410392713843) rotate(0 0.4367428884689559 15.2935913386371)"><path d="M-4.6 16.6 C-1.49 22.5, -0.22 27.43, 0.67 31.43 M-3.18 16.97 C-2.18 21.62, -0.55 25.95, 1.76 31.5" stroke="#1971c2" stroke-width="1" fill="none"></path></g><g transform="translate(144.33721285835975 144.0410392713843) rotate(0 0.4367428884689559 15.2935913386371)"><path d="M5.61 16.27 C5.2 22.19, 2.94 27.23, 0.67 31.43 M7.03 16.64 C5.04 21.34, 3.67 25.77, 1.76 31.5" stroke="#1971c2" stroke-width="1" fill="none"></path></g></g><mask></mask><g stroke-linecap="round"><g transform="translate(145.5008980075819 227.01541246686656) rotate(0 0.921289606294323 17.00939043746331)"><path d="M-0.78 0.02 C-0.16 5.79, 2.04 28.23, 2.63 33.75 M1 -1.01 C1.58 4.99, 1.54 29.21, 1.71 35.03" stroke="#1971c2" stroke-width="1" fill="none"></path></g><g transform="translate(145.5008980075819 227.01541246686656) rotate(0 0.921289606294323 17.00939043746331)"><path d="M-4.34 19.07 C-3.95 22.58, -3.52 25.62, 1.6 35.94 M-4.77 18.92 C-3.16 23.32, -1.52 27.19, 1.36 35.26" stroke="#1971c2" stroke-width="1" fill="none"></path></g><g transform="translate(145.5008980075819 227.01541246686656) rotate(0 0.921289606294323 17.00939043746331)"><path d="M7.4 18.91 C5.38 22.38, 3.38 25.45, 1.6 35.94 M6.98 18.76 C5.63 23.11, 4.3 27.02, 1.36 35.26" stroke="#1971c2" stroke-width="1" fill="none"></path></g></g><mask></mask><g stroke-linecap="round" transform="translate(17.729880196707427 430.48146711077004) rotate(0 105.5 43.5)"><path d="M5.13 5.79 C5.13 5.79, 5.13 5.79, 5.13 5.79 M5.13 5.79 C5.13 5.79, 5.13 5.79, 5.13 5.79 M0.94 16.71 C6.16 11.3, 9.89 5.1, 13.4 2.37 M0.94 16.71 C4.03 13.13, 7.66 8.47, 13.4 2.37 M0.67 23.11 C6.17 17.78, 14.42 8.02, 19.7 1.22 M0.67 23.11 C7.21 16.27, 12.59 8.87, 19.7 1.22 M0.41 29.51 C5.4 21.41, 11.01 14.47, 24.03 2.34 M0.41 29.51 C7.58 22.3, 13.57 14.59, 24.03 2.34 M0.81 35.15 C8.25 26.51, 15.21 21.56, 29.67 1.94 M0.81 35.15 C7.09 27.43, 13.53 20.77, 29.67 1.94 M0.55 41.55 C11.39 30.17, 19.01 20.81, 34.66 2.3 M0.55 41.55 C10.73 29.07, 20.43 18.83, 34.66 2.3 M0.94 47.19 C11.45 33.89, 21.07 20.63, 40.3 1.91 M0.94 47.19 C13.34 32.85, 27.42 16.98, 40.3 1.91 M0.68 53.59 C13.82 41.47, 25.84 27.69, 45.29 2.27 M0.68 53.59 C12.34 40.58, 22.01 29.17, 45.29 2.27 M0.42 59.99 C9.97 48.22, 22.41 36.18, 50.93 1.88 M0.42 59.99 C18.38 39.23, 34.85 18.57, 50.93 1.88 M0.81 65.63 C14.97 49.75, 25.31 35.58, 55.92 2.24 M0.81 65.63 C15.53 48.75, 30.07 33.33, 55.92 2.24 M1.21 71.27 C17.28 49.59, 34.15 30.7, 61.56 1.84 M1.21 71.27 C19.26 50.52, 36.99 28.86, 61.56 1.84 M2.91 75.41 C14.42 62.12, 27.39 46.61, 66.55 2.2 M2.91 75.41 C23.9 52.28, 44.58 28.9, 66.55 2.2 M4.62 79.54 C18.61 63.44, 36.7 46.02, 72.19 1.81 M4.62 79.54 C28.38 51.71, 52.95 23.96, 72.19 1.81 M6.98 82.92 C19.37 67.41, 33.82 48.15, 77.18 2.17 M6.98 82.92 C22.86 64.13, 40.34 44.51, 77.18 2.17 M10.66 84.79 C33.86 59.16, 57.76 34.69, 82.82 1.77 M10.66 84.79 C29.25 64.44, 45.33 44.42, 82.82 1.77 M13.68 87.41 C36.69 64.29, 57.17 38.1, 87.81 2.13 M13.68 87.41 C34.02 63.24, 56.25 36.46, 87.81 2.13 M18.66 87.77 C41.89 58.21, 65.58 32.6, 92.8 2.49 M18.66 87.77 C34.3 70.12, 50.82 52.05, 92.8 2.49 M23.65 88.13 C46.73 62.28, 70.67 32.28, 98.44 2.1 M23.65 88.13 C49.42 57.35, 77.05 26.1, 98.44 2.1 M28.64 88.49 C54.24 57.71, 80.55 28.61, 103.43 2.46 M28.64 88.49 C46.44 65.99, 66.88 44.66, 103.43 2.46 M34.28 88.1 C59.23 60.02, 82.97 31.09, 109.07 2.06 M34.28 88.1 C65.25 54.21, 93.34 20.54, 109.07 2.06 M39.27 88.46 C65.19 58.86, 93.45 28.97, 114.06 2.42 M39.27 88.46 C62.89 63.37, 85.04 35.23, 114.06 2.42 M44.91 88.07 C63.06 70.85, 77.46 48.31, 119.7 2.03 M44.91 88.07 C73.91 56.05, 101.68 25.32, 119.7 2.03 M49.9 88.43 C69.4 65.42, 90.66 44.29, 124.69 2.39 M49.9 88.43 C68.72 65.68, 87.1 45.03, 124.69 2.39 M54.88 88.79 C73.33 63.3, 96.34 39.66, 130.33 1.99 M54.88 88.79 C79.02 61.44, 103.89 33.78, 130.33 1.99 M60.53 88.39 C79.55 66.65, 101.54 42.3, 135.32 2.35 M60.53 88.39 C81.3 63.04, 103.53 37.9, 135.32 2.35 M65.51 88.75 C94.2 56.15, 119.16 27.31, 140.96 1.96 M65.51 88.75 C86.43 63.77, 109.39 38.34, 140.96 1.96 M71.16 88.36 C96.51 60.45, 119.87 34.35, 145.95 2.32 M71.16 88.36 C88.51 70.19, 103.94 50.81, 145.95 2.32 M76.15 88.72 C105.06 56.05, 135.82 22, 151.59 1.93 M76.15 88.72 C90.64 70.08, 105.97 53.05, 151.59 1.93 M81.79 88.32 C99.67 66.62, 117.18 47.51, 156.58 2.29 M81.79 88.32 C102.66 62.45, 123.82 37.81, 156.58 2.29 M86.78 88.68 C105.59 65.66, 127.04 39.88, 162.22 1.89 M86.78 88.68 C115.88 55.51, 145.14 21.14, 162.22 1.89 M92.42 88.29 C119.87 59.24, 144.56 29.3, 167.21 2.25 M92.42 88.29 C121.47 56.77, 148.68 25.09, 167.21 2.25 M97.41 88.65 C123.69 58.93, 146.66 30.82, 172.85 1.86 M97.41 88.65 C114.49 68.34, 133.13 47.2, 172.85 1.86 M103.05 88.25 C125.56 60.45, 149.07 36.71, 177.84 2.22 M103.05 88.25 C118.47 68.82, 136.44 47.69, 177.84 2.22 M108.04 88.61 C130.29 63.97, 152.95 36.18, 183.48 1.82 M108.04 88.61 C137.14 56.02, 165.13 22.35, 183.48 1.82 M113.68 88.22 C133.61 66.77, 154.59 42.88, 189.78 0.67 M113.68 88.22 C144.61 53.03, 173.29 20.08, 189.78 0.67 M118.67 88.58 C140.71 62.47, 165.73 33.06, 194.77 1.03 M118.67 88.58 C139.05 66.28, 160.54 41.4, 194.77 1.03 M124.31 88.18 C149.35 60.23, 171.31 33.92, 199.1 2.15 M124.31 88.18 C148.02 59.99, 172.39 33.4, 199.1 2.15 M129.3 88.54 C150.1 63.67, 174.82 38.29, 202.77 4.02 M129.3 88.54 C145.87 70.02, 162.53 51.66, 202.77 4.02 M134.94 88.15 C151.8 72.86, 164.8 55.22, 206.45 5.89 M134.94 88.15 C150.72 70.38, 165.48 53.42, 206.45 5.89 M139.93 88.51 C155.24 71.61, 172.27 54.54, 208.16 10.02 M139.93 88.51 C164.99 59.3, 191.01 28.39, 208.16 10.02 M145.57 88.12 C159.86 69.48, 175.39 52.6, 209.86 14.15 M145.57 88.12 C158.27 72.32, 172.95 57.22, 209.86 14.15 M150.56 88.48 C165.41 69.35, 182.97 48.98, 212.23 17.53 M150.56 88.48 C171 65.06, 190.95 41.74, 212.23 17.53 M156.2 88.08 C167.99 76.61, 178.69 62.99, 211.96 23.93 M156.2 88.08 C166.65 74.37, 178.56 62.03, 211.96 23.93 M161.19 88.44 C172.74 76.88, 181.92 62.49, 212.36 29.57 M161.19 88.44 C176.39 69.78, 190.86 53.04, 212.36 29.57 M166.17 88.8 C175.28 76.14, 185.24 65.32, 212.1 35.97 M166.17 88.8 C177.36 77.69, 185.98 65.87, 212.1 35.97 M171.82 88.41 C178.56 77.75, 190.16 70.62, 211.84 42.37 M171.82 88.41 C186.14 71.74, 200.41 54.68, 211.84 42.37 M176.8 88.77 C187.53 75.7, 195.19 66.47, 212.23 48.01 M176.8 88.77 C183.41 79.65, 192.47 71.37, 212.23 48.01 M182.45 88.37 C192.27 77.41, 200.76 69, 211.97 54.41 M182.45 88.37 C190.01 80.99, 196.57 72.39, 211.97 54.41 M187.43 88.73 C196.03 79.46, 205.17 71.28, 212.36 60.05 M187.43 88.73 C194.94 80, 202.39 72.78, 212.36 60.05 M191.76 89.85 C196.32 86.67, 202.37 80.56, 212.1 66.45 M191.76 89.85 C197.8 83.89, 203.52 77.42, 212.1 66.45 M198.72 87.94 C203.35 83.4, 208.37 78.48, 209.87 75.11 M198.72 87.94 C202.18 84.03, 204.2 81.33, 209.87 75.11" stroke="#a5d8ff" stroke-width="0.5" fill="none"></path><path d="M21.75 0 M21.75 0 C63.22 0.32, 100.57 0.29, 189.25 0 M21.75 0 C59 0.66, 97.41 1.88, 189.25 0 M189.25 0 C205.42 -0.26, 211.65 8.82, 211 21.75 M189.25 0 C202.17 -0.28, 213.25 4.95, 211 21.75 M211 21.75 C210.35 38.89, 213.19 54.63, 211 65.25 M211 21.75 C210.86 38.19, 211.67 55.65, 211 65.25 M211 65.25 C212.6 79.29, 202.47 87.44, 189.25 87 M211 65.25 C212.5 80.71, 206.02 85.54, 189.25 87 M189.25 87 C125.99 85.62, 65.4 85.84, 21.75 87 M189.25 87 C139.85 87.17, 87.8 86.46, 21.75 87 M21.75 87 C6.78 86.89, 1.29 79.73, 0 65.25 M21.75 87 C8.29 88.12, -0.16 78.1, 0 65.25 M0 65.25 C1.53 54.57, -0.21 40.1, 0 21.75 M0 65.25 C0.61 48.09, -0.45 32.4, 0 21.75 M0 21.75 C1.53 7.09, 7.14 1.84, 21.75 0 M0 21.75 C-0.82 9.02, 8.07 -0.34, 21.75 0" stroke="#1971c2" stroke-width="1" fill="none"></path></g><g transform="translate(55.559943062918364 461.48146711077004) rotate(0 67.66993713378906 12.5)"><text x="67.66993713378906" y="0" font-family="Virgil, Segoe UI Emoji" font-size="20px" fill="#1971c2" text-anchor="middle" style="white-space: pre;" direction="ltr" dominant-baseline="text-before-edge">Deployed Blog</text></g><g stroke-linecap="round"><g transform="translate(410.46561897831214 266.18073381696433) rotate(0 1.1825782844233572 79.70517693446016)"><path d="M0.29 0.16 C0.9 26.68, 3.05 132.26, 3.38 158.62 M-1.02 -0.8 C-0.47 25.98, 2.49 133.49, 2.89 160.21" stroke="#e03131" stroke-width="1" fill="none"></path></g><g transform="translate(410.46561897831214 266.18073381696433) rotate(0 1.1825782844233572 79.70517693446016)"><path d="M-7.72 133.72 C-4.92 139.66, -2.41 148.13, 3.57 159.56 M-8.54 131.31 C-4.96 137.33, -4.2 142.95, 2.15 159.67" stroke="#e03131" stroke-width="1" fill="none"></path></g><g transform="translate(410.46561897831214 266.18073381696433) rotate(0 1.1825782844233572 79.70517693446016)"><path d="M12.8 133.26 C9.87 139.38, 6.67 147.98, 3.57 159.56 M11.98 130.86 C11.43 136.84, 8.05 142.55, 2.15 159.67" stroke="#e03131" stroke-width="1" fill="none"></path></g></g><mask></mask><g stroke-linecap="round"><g transform="translate(427.64418327800286 518.7796630859376) rotate(0 1.4881171060283123 37.22806055531839)"><path d="M-0.28 0.95 C-0.28 12.98, 0.6 60.52, 0.97 72.68 M1.77 0.41 C2.07 12.57, 3.35 62.11, 3.25 74.05" stroke="#2f9e44" stroke-width="1" fill="none"></path></g><g transform="translate(427.64418327800286 518.7796630859376) rotate(0 1.4881171060283123 37.22806055531839)"><path d="M-5.75 44.62 C-3.75 56.84, 2.33 67.11, 3.15 75.89 M-7.49 46.51 C-3.87 53.71, -1.59 60.38, 3.18 73.43" stroke="#2f9e44" stroke-width="1" fill="none"></path></g><g transform="translate(427.64418327800286 518.7796630859376) rotate(0 1.4881171060283123 37.22806055531839)"><path d="M14.77 44.38 C9 56.64, 7.3 67.01, 3.15 75.89 M13.03 46.27 C11.22 53.61, 8.07 60.34, 3.18 73.43" stroke="#2f9e44" stroke-width="1" fill="none"></path></g></g><mask></mask><g stroke-linecap="round"><g transform="translate(328.63092041015614 639.2764544407045) rotate(0 -47.43122339429604 2.363298782929462)"><path d="M0.81 0.91 C-15.15 1.45, -79.58 2.54, -95.67 2.9 M-0.23 0.35 C-15.83 1.1, -77.93 3.7, -93.45 4.38" stroke="#1971c2" stroke-width="1" fill="none"></path></g><g transform="translate(328.63092041015614 639.2764544407045) rotate(0 -47.43122339429604 2.363298782929462)"><path d="M-64.21 -8.66 C-74.46 -5.05, -82.68 1.17, -92.66 3.53 M-65.24 -6.3 C-72.24 -3.82, -80.97 -0.29, -93.69 4.66" stroke="#1971c2" stroke-width="1" fill="none"></path></g><g transform="translate(328.63092041015614 639.2764544407045) rotate(0 -47.43122339429604 2.363298782929462)"><path d="M-63.33 11.84 C-73.8 9.17, -82.29 9.1, -92.66 3.53 M-64.36 14.21 C-71.75 11.16, -80.72 9.17, -93.69 4.66" stroke="#1971c2" stroke-width="1" fill="none"></path></g></g><mask></mask><g stroke-linecap="round"><g transform="translate(123.6561192103793 594.5925205775669) rotate(0 -0.0970752139994886 -36.609645778685774)"><path d="M0.92 -0.21 C0.83 -12.26, -0.15 -60.97, -0.59 -73.01 M-0.05 -1.36 C-0.23 -13.15, -0.68 -59.35, -1.12 -71.55" stroke="#f08c00" stroke-width="1" fill="none"></path></g><g transform="translate(123.6561192103793 594.5925205775669) rotate(0 -0.0970752139994886 -36.609645778685774)"><path d="M9.39 -42.23 C6.44 -52.36, 4.16 -62.11, 0.51 -70.53 M9.05 -43.24 C4.66 -54.58, 1.68 -65.01, -0.84 -71.56" stroke="#f08c00" stroke-width="1" fill="none"></path></g><g transform="translate(123.6561192103793 594.5925205775669) rotate(0 -0.0970752139994886 -36.609645778685774)"><path d="M-11.12 -41.79 C-7.97 -52.21, -4.15 -62.09, 0.51 -70.53 M-11.47 -42.8 C-8.09 -54.51, -3.3 -65.1, -0.84 -71.56" stroke="#f08c00" stroke-width="1" fill="none"></path></g></g><mask></mask></svg>